<?xml version="1.0" encoding="utf-8"?><!--Generator: Adobe Adobe Illustrator 24.2.0, SVG Export Plug-In . SVG Version: 6.00 Build 0)--><svg version="1.1" id="Ebene_1" xmlns="http://www.w3.org/2000/svg" xmlns:xlink="http://www.w3.org/1999/xlink" x="0px" y="0px" viewBox="0 0 1024 1024" style="enable-background:new 0 0 1024 1024;" xml:space="preserve"><style type="text/css">.st0{fill:none;}
	.st1{fill:#1A4922;}
	.st2{fill:#E5D2B3;}
	.st3{fill:#283330;}</style><g><g><path vector-effect="non-scaling-stroke" class="st0" d="M837.1,126.1c-118.1-94.9-270-130-418.7-103
			C188.3,64.8,23.4,254.2,8.6,480.2C2.3,576.1,21.4,666.3,66,750.8c0.1,0.1,0.2,0.1,0.3,0.1c0.3-0.2,0.4-0.2,0.3,0
			c0,0.1-0.1,0.1-0.1,0c-29.2-58.7-47-121.2-53.3-187.6c-0.9-9.5-1.4-16.6-1.6-21.2c0-0.3,0.1-0.5,0.4-0.6c0.3-0.1,0.5,0,0.5,0.2
			c5.5,77.6,28.7,149.2,69.8,214.8c61.1,97.8,165.1,166.1,280,187.9c0.1,0,0.2,0.2,0.2,0.3c0,0.1-0.1,0.2-0.2,0.2
			c-52.9,1.1-103.3-9-151.2-30.5c-0.2-0.1-0.3,0-0.4,0.2c0,0.1,0,0.2,0.1,0.3c121.6,87.4,278.8,115.6,424.1,79.4
			c103.3-25.7,189.9-78.6,259.6-158.7c24.5-28.1,44.2-55.3,59-81.4c74.8-131.8,82.5-293.7,26.3-434.9
			C951,246.9,907.4,185.8,849,136.1"/><path vector-effect="non-scaling-stroke" class="st0" d="M837.1,126.1l11.9,10"/><path vector-effect="non-scaling-stroke" class="st0" d="M160.6,160.5C12.8,303.8-21.9,518.4,66.1,701.2
			c26.4,55,67.8,109.9,120,147.1c34.4,24.5,72.7,39.8,115,45.8c89.1,12.7,270.5-3,263.7-132.2c-1.4-25.6-10.6-50.3-25-71.8
			c-23.2-34.7-51.8-64.3-85.8-89c-20.2-14.6-50-33.7-77-26.3c-13.4,3.7-23.9,11.9-31.2,24.8c-13.7,23.8,12.7,35.9,32.2,35
			c0.6,0,0.7-0.3,0.5-0.8c-3.6-9.9-2.3-18.1,4-24.6c15.5-16.2,35-2.9,45,10.8c0.3,0.4,0.2,0.8-0.2,1.1c-3.5,2.1-8.3,5.9-14.2,11.4
			c-14.8,13.7-36.6,11.3-54.3,4.1c-5.9-2.4-10.8-6-14.9-10.8c-0.7-0.9-1-0.7-0.9,0.4c0.7,5.9,2.3,16.3,4.7,31.1
			c2.1,12.7,8.7,22.6,19.6,29.6c0.3,0.2,0.7,0.1,0.9-0.2c0-0.1,0.1-0.1,0.1-0.2c2.4-8.8,7.8-14.4,16.3-16.8
			c10.3-3,17.2,4.3,24.5,9.3"/><path vector-effect="non-scaling-stroke" class="st0" d="M409.1,678.6c1.1,0.1,2,0.3,2.6,0.7c0.5,0.3,0.6,0.7,0.4,1.2
			c-16.4,35.5-54.2,12.9-64.8-12c-0.2-0.4-0.4-0.4-0.5,0c-1.1,4,2.8,12.2,4,16.4c0.3,0.9,1.3,3.5,3.1,7.5c3.8,8.7-0.7,18.6-7.3,24.7
			c-0.4,0.4-0.9,0.4-1.4,0.1c-5.9-3.7-9.8-7-11.9-10c-8.3-12.3,0.6-24.9,2.8-37.4c2.8-16.3,1.1-32.1-1.2-48.4
			c-0.1-0.5-0.2-0.5-0.5-0.1c-5.5,9.5-2.6,22.8-6.7,32.4c-3.6,8.4-10.6,13.4-20.9,15c-0.6,0.1-1-0.2-1.2-0.7
			c-1.3-5-1.8-10.1-1.5-15.2c0.5-11.8,18.5-18.4,23.3-24.4c2.6-3.2,4.1-5.6,4.7-7.2c2.8-7.7,2.1-7.9-1.9-0.8
			c-0.1,0.1-1.1,1.2-3.1,3.2c-1,1-2.2,1.9-3.5,2.7c-6.3,3.8-12.1,8.3-17.1,13.7c-5.7,5.9-11.5,6.9-19.2,5.2
			c-0.5-0.1-0.7-0.4-0.5-0.9c2-6.8,4.3-11.3,6.8-13.5c4.8-4.1,16.3-3.2,22.2-2.4c0.6,0.1,1.1,0,1.6-0.2
			c13.5-6.2,14.5-17.5,18.4-29.4c3.9-12.2,10.6-20.6,21-27.7c0.3-0.2,0.4-0.6,0.2-0.9c-0.2-0.2-0.4-0.3-0.7-0.3
			c-8.9,1.5-43.5,7.1-47.4,15.4c-0.4,0.8-0.4,1.9-0.1,3.3c1.6,7.2,0.2,13.9-4.2,19.9c-6.7,9.1-18.9,6-28.6,7.1
			c-0.6,0.1-0.9-0.2-1-0.7c-1.2-9.8-0.9-20.3,7.9-26.7"/><path vector-effect="non-scaling-stroke" class="st0" d="M282.8,588.3c4.4-2.7,7.4-4.2,9.1-4.5c9.3-1.8,18.6-4.7,27.9-8.7
			c0.4-0.2,0.6-0.6,0.4-1c-0.1-0.3-0.4-0.4-0.7-0.5c-16.9-0.8-34-8.6-36.4-27.3c-0.8-5.7-1.1-10.5-1-14.3c0-0.7,0.4-0.9,1-0.7
			c7.5,2.5,17.8,4.1,23.3,8.6c6.6,5.3,8.2,12.6,5,21.9c-0.2,0.6,0,1.1,0.7,1.3c3.8,1.3,7.8,1.7,11.9,1.2c19.5-2.2,37.9-5.8,58.8-3.8
			c22,2.2,40.8,8.1,58.7,20.1c1.4,0.9,1.7,0.7,0.9-0.8c-22.3-40.4-50.2-76.6-98.3-89c-2.8-0.7-5.6-0.1-8.5,1.9
			c-5.1,3.5-16.7,12.6-7.3,17.9c8.9,5.1,14,12.4,15.2,21.9c0.4,3.2,0.1,5.7-1,7.6c-0.3,0.6-0.8,0.9-1.5,1
			c-18.2,2.8-31.5-6.9-26.8-25.9c2.1-8.7,6.9-15.8,14.4-21.5c2.2-1.7,5.6-2.6,8.1-4.4c0.6-0.4,0.5-0.7-0.2-0.9
			c-11-3-20.1-3.8-27.1-2.7c-14.9,2.5-4.8,25.4-26.9,25.2c-7.6-0.1-12.8-0.7-18.2,2.2"/><path vector-effect="non-scaling-stroke" class="st0" d="M264.2,513.5l-0.9,0.3c-0.7,0.2-1,0-1-0.7c-1.2-23.9,21.1-35.4,42.9-36.3
			c18.6-0.8,36.1,2.9,52.4,11.1c6.1,3,12.5,5.5,18.3,8.9c0.2,0.1,0.4,0,0.5-0.2c0.1-0.1,0-0.3-0.1-0.4c-14.8-13-31.9-21.6-51.4-26.1
			c-9-2.1-16.3-6.7-21.8-13.9c-7.2-9.4-7.5-20.4-3.9-31.2c0.2-0.5,0.6-0.7,1.1-0.7c12.7,1.7,23.2,3,29.9,13.4"/><path vector-effect="non-scaling-stroke" class="st0" d="M330.3,437.9c2.4,6.4,4.1,13,5.1,19.9c0.7,4.9,1.9,8.7,5.9,11
			c30.9,18.4,58.5,39.9,82.9,64.5c0.8,0.8,1.1,0.7,0.7-0.4c-3.1-10.8-7.2-20.8-8.6-32c-2.2-16.9-4.3-33.7-6.4-50.6
			c-2.8-22.4-12.1-43.5-27.9-63.3c-3.2-4-6.8-6.9-10.7-8.6c-0.6-0.3-1.3-0.2-1.8,0.2c-6.3,4.7-12.7,5.8-19.2,3.3"/><path vector-effect="non-scaling-stroke" class="st0" d="M350.3,381.9c-3.6-3.2-6.2-6.8-8.1-10.9c-0.3-0.6-0.1-1.1,0.5-1.5
			c6.2-3.6,12.9-4.7,20-3.2c0.6,0.1,1.1,0.4,1.6,0.8c9.6,9.4,19.4,17.1,26.5,29.5c0.3,0.5,0.5,0.5,0.6-0.1c0.1-0.3,0-0.6-0.1-1
			c-4-9.4-8.7-18.4-14.2-27c-7.3-11.5-16.5-12.8-28-16.7c-4.8-1.7-7.1-5.5-6.8-11.4c0-0.5,0.3-0.9,0.8-1.2
			c8.7-4.4,16.2-3.7,22.5,2.2c3.8,3.5,5.6,9.7,7.7,14.6c1.3,3,3.3,6.7,6,10.9c4.3,6.6,7.7,13.7,10.2,21.4c0.1,0.1,0.2,0.2,0.4,0.2
			c0.1,0,0.2-0.2,0.2-0.3c-2.2-26.4-0.2-52.2,15-75c0.3-0.5,0.5-1.1,0.4-1.7c-1-6.4-4.1-11.6-9.2-15.6c-0.4-0.3-0.4-0.6,0.1-0.7
			c0.2-0.1,0.5,0,0.7,0.2c4.4,4.9,7.6,7,9.6,13.8c0.2,0.6,0.5,0.7,0.8,0.1c3.6-6-1.8-16-5.8-20.8c-1.2-1.4-3.2-1.6-4.7-0.6
			c-19.3,12.9-34.9-2.6-40.2-20.8c-0.2-0.7,0.1-1,0.7-0.9c2.5,0.1,3.5-0.3,5.8-1.4c28.6-13.5,41.2,14.2,49,34.7
			c0.9,2.4,0.6,3.6,0.1,5.9c-0.2,0.7,0,0.9,0.7,0.4c15.6-11.7,32.6-15.6,50.9-11.6c15.4,3.3,27.6,11.8,39.9,22.2
			c0.1,0.1,0.3,0.1,0.3,0c0-0.1,0.1-0.1,0-0.2c-4.1-8.2-8.3-16.4-12.6-24.6c-6.5-12.3-19.4-30.1-32.5-35.1
			c-16.6-6.3-35.3-13.6-32.5-33.9c0.6-4.6,2.4-9.2,5.4-13.9c0.3-0.5,0.7-0.5,1.1-0.1c2.8,3.5,6.2,6.1,10.3,7.9
			c4.6,2,7.4,3.4,8.4,4.2c9.8,7.9,7.7,16.9,10.6,27.5c0.6,2.3,2,4.6,4.2,6.8c8.3,8.4,15.4,17.7,21.4,27.8c0,0.1,0.1,0.1,0.2,0.1h0.5
			c0.1,0,0.2-0.1,0.1-0.2c-3.3-8.3-10.1-33.9-2.4-40.7c3-2.7,6.8-3.1,11.4-1.1c0.5,0.2,0.9,0.6,1,1.1c2.2,8.3-3.4,14.6-7.2,21
			c-6.3,10.6,2,27.1,8,36.7c4.8,7.7,8.6,15.6,11.5,23.8c0.1,0.2,0.3,0.4,0.6,0.3c0.2-0.1,0.3-0.2,0.3-0.4
			c0.6-23.4,6.3-43.8,11.6-66.4c0.1-0.5,0.4-0.8,0.8-1c0.1-0.1,0.3-0.1,0.4-0.2c0.4-0.2,0.7-0.5,0.8-0.9c3.6-10.8,5.5-18.4,5.6-22.7
			c0.3-8.3-4.9-19.2-4.6-27.4c0.4-10.8,5.8-18.7,16.4-23.9c0.3-0.2,0.5-0.1,0.6,0.3c2.4,10.1,8.5,18.6,4.4,29.2
			c-1.3,3.2-4.3,9.9-9.2,20.2c-5.2,10.8-8.8,21.2-10.9,31.3c-1,5-0.5,5.2,1.7,0.6c4.6-9.8,10.2-18.3,18.6-27.7
			c4.9-5.5,9.2-11.3,13-17.6c12.1-20,27.4-15.1,45.6-7.1c0.6,0.2,0.7,0.6,0.5,1.2c-5.6,16.5-19.1,32.6-39.4,22.5
			c-2.1-1.1-4.2-2.2-6.2-3.4c-0.5-0.3-1.1-0.4-1.7-0.2c-1.4,0.4-2.7,1-3.8,2c-27.4,24.6-37.5,64.7-35.4,99.8
			c0.8,13.5,1.7,27,2.7,40.5c2.3,29.7-6,56.7-17.9,82.8c0,0.1,0,0.2,0.1,0.2c0.1,0,0.2,0,0.2-0.1l0,0c16.9-22.8,37.6-41.2,62.1-55.3
			c14.3-8.2,31.8-10.1,44.2-20.9c9-7.8,15.3-17.5,19-29.2c0.2-0.6,0.6-1,1.1-1.3c3.3-1.7,6.5-1.6,9.8,0.2c0.5,0.2,0.7,0.6,0.9,1.1
			c2.1,7-1.5,10.3-7.7,13.5c-11.3,5.9-17.2,13.5-25.5,21.4c-0.4,0.4-0.3,0.5,0.2,0.4c18.7-3.3,31.3-4.7,44-11.4
			c5.8-3.1,14.7-15.2,21.8-11.8c1.7,0.8,2.4,2.8,1.6,4.5c-0.2,0.3-0.4,0.6-0.6,0.9c-2.8,2.8-6.1,4.5-9.9,5.1
			c-7.2,1.1-13.9,3.4-20.2,7c-0.6,0.3-0.5,0.5,0.1,0.4c2-0.1,4.6-0.7,6.4-0.5c16.8,1.2,32.5,5.9,47.1,14.4
			c17.8,10.3,7.8,31.2-1.6,44.2c-0.1,0.2-0.2,0.2-0.2-0.1c0.5-10.9-2.9-21.4-10.1-31.7c-4.6-6.5-10.1-10.8-16.7-12.9
			c-9.4-3.1-24.7-3.4-36.3-2.4c-48.1,4.2-92.2,25.6-118.8,65.4c-0.1,0.1-0.1,0.2-0.1,0.3c0.1,0.2,0.1,0.3,0.2,0.4
			c0,0.1,0.2,0.2,0.3,0.2c0.1,0,0.1,0,0.1-0.1c9.5-10.9,21.3-17.8,35.6-20.6c26.9-5.3,51.3,4.5,74.3,17.3c6.5,3.6,12.2,2.5,17.1-3.2
			c1.4-1.6,1.1-3.9-0.5-5.2c-0.1-0.1-0.2-0.2-0.4-0.3c-3.9-2.5-7.4-5.9-8.5-10.4c-1.3-5.1,0.1-13.9,6.4-15.7
			c1.9-0.6,3.5-0.5,4.7,0.3c13.5,8.9,8.3,28-1.4,37c-0.5,0.5-1.1,0.7-1.7,0.8l-8.2,1.1c-1.3,0.2-1.3,0.5-0.1,0.9
			c21.8,7.6,43.3,7.5,64.2-0.4c15.3-5.7,9.4-20.1,20.2-28.5c4-3.2,10-5.3,18-6.3c0.5-0.1,0.9,0.2,0.9,0.7
			c3.1,22.8-26.5,35.7-44.5,40.8c-1.3,0.4-1.3,0.6,0.1,0.6c8.1,0,16.5,0.5,25.2,1.4c19.4,2.1,35.4,15.4,26.5,36.1
			c-0.5,1.2-1,1.2-1.5,0l-0.7-1.6c-0.2-0.5-0.7-0.7-1.2-0.7c-14.9,0.7-26-2.6-29.7-17.9c-0.7-2.8-1.9-6-3.7-9.5
			c-0.3-0.5-0.7-0.9-1.2-1.1c-6.3-3.1-11.8-4.3-16.2-3.6c-24.1,3.8-44.6,4.5-65.5-5.5c-0.1-0.1-0.3-0.1-0.4,0.1s-0.1,0.3,0.1,0.4
			c7.6,8.3,14.9,16.3,21.8,24c8,8.9,16.7-0.7,26.2-0.7c7.1,0.1,14,2.1,20.5,6.1c0.8,0.5,1.1,1.5,0.6,2.4c-14,24.3-40.1,9.2-53.1-5.3
			c-0.2-0.3-0.7-0.4-1-0.2c-0.3,0.2-0.4,0.7-0.2,1c11.3,19.9,35.4,29.2,56,30.8c5.7,0.4,14.3-5.7,20.4-6.2c10.6-1,21.8,5.4,26.3,15
			c0.3,0.6,0.1,1-0.5,1.2c-4.4,1.5-8.8,3.3-13,5.3c-9,4.4-16.1,1.7-24.5-2.8c-9.6-5.2-19.2-8.1-29.1-11.8c-0.2-0.1-0.4,0-0.4,0.2
			c-0.1,0.1,0,0.3,0.1,0.4c19.9,14.5,63.4,51.5,30.2,77c-0.4,0.3-0.8,0.3-1.1-0.1c-8.7-11.1-10.6-19.3-7.4-32.6
			c4.2-17.2-3.1-27.8-17.8-37.2c-0.7-0.4-0.8-0.3-0.5,0.4c6.9,14.6,17,31.9,5.6,44.2c-4.1,4.4-12.3,6.8-17.9,11.1
			c-0.5,0.4-0.9,0.3-1.3-0.1c-9.1-10.5-11.6-26.6,3.3-33.7c2.3-1.1,5.9-2.3,11-3.6c0.6-0.2,0.9-0.6,1-1.2c0.6-7.1-1-13.2-4.9-18.3
			c-1.9-2.5-5.8-5.6-11.8-9.4c-8.5-5.4-13.1-8.4-19.1-15.2c-0.4-0.5-0.7-0.4-0.7,0.2c-0.4,5.9-0.3,9.6,0.4,11.2
			c3.1,7.1,8.5,17.4,6.4,26.2c-1.6,6.9-10.3,14-15.3,19.8c-0.8,0.9-1.5,0.9-2.2-0.1c-4.7-7-12-17.8-10.4-25.9
			c1.3-6.8,7.2-12.2,12.3-16.8c11.8-10.6,2.4-24.7-4.3-36.1c-14.6-24.5-36.2-38.2-66.2-39.3c-1.1,0-1.1,0.1-0.1,0.4
			c12.9,3.9,23.3,10.9,31.2,21c12.4,15.9,15.1,33.6-2.6,47c-0.3,0.2-0.3,0.6-0.1,0.8c0.1,0.2,0.4,0.3,0.6,0.2
			c10.9-3.2,18.9-0.4,23.8,8.4c2.3,4,1.5,9,1.4,13.5c0,0.7-0.3,0.8-0.8,0.3c-1.4-1.5-2.9-3.2-4.8-4.1c-19.7-9-45.2-4.3-58.3,13
			c-2.8,3.8-2.1,4.5,2.1,2.4c11.1-5.8,26.1-12.7,36.3-1.7c1.2,1.3,1.1,3.3-0.2,4.5c0,0-0.1,0.1-0.1,0.1c-12,9.8-16-11.6-29-3
			c-0.7,0.5-0.6,0.8,0.1,1.2c11.8,5.1-1.7,26.3-6,32.9c-0.1,0.1-0.1,0.1-0.1,0.1c0-0.2,0-0.3-0.1-0.5c0-0.1,0-0.2,0.1-0.3
			c5.5-9.6,8.7-16.8,9.6-21.7c0.8-4.5-1.2-7.9-6-10.2c-0.5-0.2-1-0.3-1.5-0.2c-3.4,0.5-5.6,0.7-8.3,3.1
			c-25.1,22.9-23.1,52.9-6.4,80.1c8.2,13.3,21.6,26.4,32.7,39c23.8,27,41,49.3,48.4,85.3c1.8,8.7,2.9,39.5,11.4,46.2
			c1.2,0.9,2.8,0.7,3.7-0.4c0.1-0.1,0.1-0.1,0.2-0.2c14.9-22.5,4.9-49.1,3.5-74.9c-3-55.6,58.1-65.7,96-41.8
			c0.2,0.1,0.3,0.2,0.2,0.2l-0.5,0c-0.3,0-0.6-0.1-0.8-0.2c-18.5-10-37.3-11.5-56.6-4.5"/><path vector-effect="non-scaling-stroke" class="st0" d="M683.7,679.7c-40.7,17.1-26.5,56.5-22.1,88.2
			c9.2,65.5-40.7,123.7-98.1,149.4c-7.1,3.2-12.6,3.2-20.3,3.1c-30.1-0.1-60.1-0.9-89.9-2.4c-0.3,0-0.5,0.2-0.5,0.5
			c0,0.2,0.1,0.4,0.3,0.5c36.2,11,72.1,15.9,109.6,17.6c101.5,4.6,194-21.6,277.3-78.6"/><path vector-effect="non-scaling-stroke" class="st0" d="M840,858c49.1-34.6,88.2-77.4,117.4-128.5"/><path vector-effect="non-scaling-stroke" class="st0" d="M957.4,729.5c23.2-41.5,39.3-85.2,48.2-131.2"/><path vector-effect="non-scaling-stroke" class="st0" d="M1005.6,598.3c21.4-110.2,3.1-227.9-52-326.5"/><path vector-effect="non-scaling-stroke" class="st0" d="M953.6,271.8C906.4,188,839.8,123.1,753.8,77
			c-81.4-43.6-175.3-62.8-267.9-58.8c-122.4,5.3-238.3,59-325.3,142.2"/><path vector-effect="non-scaling-stroke" class="st0" d="M766.5,873.6l0.8-0.6c0.2-0.1,0.2-0.4,0.1-0.6c-0.1-0.1-0.3-0.2-0.5-0.1
			l-22,7.3c-2.4,0.8-3.2,0-2.3-2.3c7.2-18.3,34.7-33.2,53.3-38.7"/><path vector-effect="non-scaling-stroke" class="st0" d="M411.9,779.3c15.5,20.1,9.2,41.2-10.9,54.3
			c-14.2,9.2-30.4,16.2-48.8,20.9c-41.9,10.7-86.4,10.7-126.4-6.2c-32-13.5-58.7-33.9-80.3-61.1c-0.1-0.2-0.2-0.2-0.3,0
			c0,0.1-0.1,0.2-0.1,0.3c0,0.1,0,0.3,0.2,0.5c39.8,54.6,95.5,85.6,162.9,94.4c50.9,6.7,100.9,1.9,149.9-14.2
			c27.5-9.1,62.7-25.9,72.5-55.3c12.5-37.6-22.4-67.6-55.7-78.7"/><path vector-effect="non-scaling-stroke" class="st0" d="M419.3,769.2c14,8.9,23.7,22.4,23,38.9c-1,26.8-30.3,44.5-51.5,56.5
			c-0.8,0.5-0.8,0.7,0.2,0.6c30.2-1.4,57.8-10.5,82.8-27.1c27.5-18.3,40.2-44.1,22-74.1c-11.6-19.2-29.6-30.6-53.9-34.2"/><path vector-effect="non-scaling-stroke" class="st0" d="M796,838.6l-9.1,0.6"/><path vector-effect="non-scaling-stroke" class="st0" d="M721.4,817.6c9.1-6.7,18.2-11.4,27.5-14.2c4.1-1.2,4-1.7-0.3-1.5
			c-10.1,0.5-19.9,3.1-29.6,7.9"/><path vector-effect="non-scaling-stroke" class="st0" d="M474.8,734.1c-22.1-8.2-44.9-9.8-68.5-4.7c-0.1,0-0.1,0.1-0.1,0.1
			c0,0,0,0.1,0,0.1c0,0.2,0.1,0.2,0.3,0.2c11.7-2.2,23.5-2.2,35.3,0"/><path vector-effect="non-scaling-stroke" class="st0" d="M419.3,769.2c-23.4-11.9-48-14-73.9-6.2c-0.1,0-0.1,0.1-0.1,0.2
			c0,0.1,0.1,0.1,0.2,0.1c10.3-1.9,20.8-2.2,31.5-1.1c14.4,1.5,26,7.2,34.8,17.1"/><path vector-effect="non-scaling-stroke" class="st0" d="M719,809.8c-46.1,20.2-83.9,61-101.4,107c-0.3,0.8,0,1.2,0.9,1.1
			c17.9-2.1,35.5-5.4,52.9-9.8c0.6-0.2,0.9-0.5,0.8-1.2c-5.4-37.8,17.7-69.5,49.2-89.4"/><path vector-effect="non-scaling-stroke" class="st0" d="M787,839.2c-28.9,5.7-50.6,20.9-65.3,45.7c-2.4,4-4.8,8.1-7.3,12.1
			c-0.3,0.6-0.2,0.7,0.4,0.5c18.5-6.3,35.7-14.3,51.7-23.9"/><path vector-effect="non-scaling-stroke" class="st0" d="M441.7,374.5c-10.4-6.2-24.5-10.7-20.9-26.2c1.5-6.3,3.5-11.9,11.3-11
			c0.8,0.1,1.5-0.4,1.6-1.2c0,0,0,0,0,0c1.7-13.8,9.9-37.4,28.6-33.5c0.1,0,0.2,0,0.3-0.1c0.3-0.9,0.3-1,0-0.2
			c0,0.1-0.1,0.1-0.2,0.1c-24-5.2-50,8.4-58.6,30.5c-14.5,37.4-0.7,72.1,11.2,108.2c1.5,4.5,2.4,8.9,2.8,13.2
			c0.1,1.4,0.4,1.4,0.7,0.1c3.9-14,9.6-27.6,17.1-40.8c1.9-3.3,4.8-7.1,8.7-11.4c8.2-8.9,14.9-18.7,20.3-29.5
			c5.1-10.1,15.5-10.6,25.6-7.9c0.6,0.2,0.8,0.5,0.8,1.1c0,7-3.7,17.2-12,18.3c-18.5,2.4-32.6,16-41,31.9c-3.3,6.2-2.7,6.6,1.9,1.2
			c1.3-1.5,2.8-3.4,4.5-4.7c10.3-7.9,18.1-13.6,23.5-17.2c10-6.7,21.9-4.3,31.1,3c0.5,0.4,0.6,1,0.3,1.5c-2.7,4.6-6,8.7-10,12.4
			c-7.8,7.1-20.3-0.2-26.1-6.6c-0.4-0.4-1-0.5-1.5-0.3c-11.5,5.4-20.4,13.5-26.7,24.4c-10.9,18.9-14.9,37.4-12,55.4
			c1,6.4,2.1,6.4,3.1,0c2-13.2,1.9-30.2,21.1-28.5c0.5,0,0.8,0.3,0.9,0.8c1.4,5.8,0.8,11.2-2,15.9c-4.1,7-14.1,6.2-18.2,14.1
			c-12.2,23.3,23.4,85.7,36.7,105.4c3,4.4,7.9,9.1,12.1,12.5c28.4,23.4,53.8,50.1,80.5,75.5c0.2,0.2,0.6,0.3,0.8,0.1
			c0.2-0.2,0.3-0.6,0.1-0.8l0,0c-20.2-27.8-43.3-55.5-60.7-84.5c-17.6-29.3-23.4-60.3-17.2-93c6.5-34.7,28.4-64.4,35.2-98.1
			c3.3-16.1,2.4-33.1-2.6-51c-5.2-18.3-21.7-41.6-40.8-46.7c-12.4-3.3-22,0.2-28.9,10.8c-6.2,9.5-5.8,18,1.1,25.6
			c8.8,9.7,5.5,21.2-1.2,31.1C442.5,374.7,442.2,374.8,441.7,374.5"/><path vector-effect="non-scaling-stroke" class="st0" d="M547.9,521.1c4.6,7.5-2.9,15.7-5.4,22.3c-0.1,0.3,0,0.7,0.4,0.8
			c0.2,0.1,0.5,0,0.7-0.1c4.2-4,8.1-8.8,12.3-12c10.2-7.7,20.5-11.2,31.3-16.5c0.6-0.3,0.8-0.9,0.5-1.5c-0.1-0.2-0.2-0.3-0.4-0.4
			c-5.8-3.8-12.9-9.3-14.1-16.5c-1.8-11.2,2.8-19,13.9-23.2c1.4-0.5,2.1-2,1.5-3.4c0,0,0-0.1-0.1-0.1c-6.8-14.4-18.5-24.5-35.4-23.8
			c-35.4,1.5-57.2,34.2-60.6,65.7c-4.1,37.8,11,71.1,34.5,100.1c1.7,2.1,2,1.9,1.1-0.6c-6.9-17.5-5.4-34.7,4.6-51.7
			c1.6-2.8,3.2-5.7,4.8-8.7c0.3-0.5,0.3-1.1,0.2-1.6c-1.6-7.3-4.6-16.8-0.5-24.6c1.9-3.5,5-5.2,9.4-5
			C547.1,520.3,547.5,520.6,547.9,521.1"/><path vector-effect="non-scaling-stroke" class="st0" d="M344.6,673.4c-0.4-1.7-0.3-4.3-1-6.3c-0.4-1.3-0.7-1.3-0.9,0.1
			c-1.3,7.9,1.1,14.5,7.1,19.9c0.2,0.2,0.5,0.1,0.7-0.1c0.1-0.2,0.1-0.4,0-0.6C347.8,682.8,345.8,678.5,344.6,673.4"/><path vector-effect="non-scaling-stroke" class="st0" d="M507.8,222.6c13.7,4.2,16.4,20.2,16,32c0,0.2,0.2,0.4,0.4,0.4
			c0.2,0,0.4-0.1,0.4-0.3c2.5-7.9-0.8-15.7-4.1-25c-1.7-4.7-0.6-7,0.3-11.8c3.4-18.3-12-29.1-29-20.7c-0.6,0.3-0.9,0.7-0.9,1.4
			C490.2,211,495.8,219,507.8,222.6"/><path vector-effect="non-scaling-stroke" class="st0" d="M553,270c8.6-3.8,15.2-6.3,24.7-5.7c8.4,0.5,17.9,5.6,25.2,7.1
			c12.8,2.5,20-4.3,30.6-8.6c0.6-0.2,0.8-0.6,0.5-1.2c-3.1-8.3-9.3-13-18.4-14.4c-14.1-2-20.3,4.6-28.3,14.9
			c-0.4,0.5-0.9,0.8-1.5,0.8c-3.4,0.4-7.9-0.2-10.2-0.1c-8.6,0.5-16.2,2.7-22.9,6.7C550.1,271.1,550.1,271.3,553,270"/><path vector-effect="non-scaling-stroke" class="st0" d="M414,281.1c7.5,7.8,18,2.2,27.6,3.7c8.5,1.3,17,3.6,25.6,6.9
			c0.2,0.1,0.4,0.1,0.5,0c0.1,0,0.2-0.2,0.1-0.3c0-0.1-0.1-0.1-0.1-0.1c-7.8-3.9-16.1-6.4-24.8-7.5c-1.7-0.2-3.1-1.3-3.7-2.8
			c-1.9-4.7-4.9-9.2-8.8-13.4c-5.2-5.5-15.8-3.5-22-1.2c-1.3,0.5-1.9,1.9-1.4,3.1c3.8,9.5,6.3,19.3,7.6,29.3c0,0.2,0.2,0.4,0.4,0.4
			c0.2,0,0.4-0.2,0.4-0.4c0.8-6,0.1-11.8-2-17.5C412.9,280.3,413.1,280.2,414,281.1"/><path vector-effect="non-scaling-stroke" class="st0" d="M584.8,347.4c1.6-9.5,3-18.9,4-28.4c1.1-9.7,7.9-18.9,2.7-28.5
			c-4.3-7.9-16.1-11.1-24.9-11.4c-0.8,0-1.6,0.5-1.8,1.3c-1.6,6.4-1.4,12.6,0.5,18.6c2.8,8.8,13.3,11,15.6,19.7
			c2.7,10.4,0.5,23.4-0.8,34.1c-0.2,1.4-0.4,1.4-0.8,0.1c-3.3-10.7-10.8-19.4-16.2-29.3c-8.1-14.7-24.3-12.2-37.2-7.4
			c-0.6,0.2-0.9,0.8-0.7,1.4c6.6,20.1,17.5,29.8,39.2,19.3c0.7-0.3,1.6-0.2,2.1,0.4c22,23.1-0.6,55-18.8,71.7
			c-0.2,0.2-0.1,0.3,0.1,0.4c0.2,0.1,0.3,0,0.5-0.1c11.6-9.8,22.1-20.7,31.4-32.7c6.7-8.6,15.5-13.8,26.4-15.5
			c9.2-1.5,14.3-14.4,2.3-13.9c-8.7,0.4-12.7,8.3-17.9,16.3c-1,1.6-4.2,4.4-9.6,8.4c-0.4,0.3-0.5,0.2-0.4-0.2
			c5.6-20.7,10.3-36.3,28.3-49.5c9.8-7.2,20.8,11.9,32.9,3.1c5.2-3.8,8.5-8.8,9.8-15.1c0.1-0.6-0.1-1-0.7-1.2
			c-8-2.8-20.2-8.8-28.3-4.1c-1.5,0.9-4.2,3.6-8.2,8.2c-10.6,12.2-22.8,17.4-29,34.7c-0.1,0.1-0.2,0.2-0.4,0.2
			C584.8,347.7,584.8,347.5,584.8,347.4"/><path vector-effect="non-scaling-stroke" class="st0" d="M431.2,288.1h-6.1c-0.8,0-0.9,0.1,0,0.3c1.9,0.4,3.9,0.4,6.2,0
			C432.4,288.2,432.4,288.1,431.2,288.1"/><path vector-effect="non-scaling-stroke" class="st0" d="M386.8,372.3c1.2-8.8,2.3-17.4,3.4-25.7c0.4-2.6-0.1-4.9-1.5-6.6
			c-0.7-1-2.1-1.2-3.1-0.5c-0.4,0.3-0.7,0.7-0.8,1.2c-2.6,8.7,0.7,22.6,1.6,31.6C386.5,373.7,386.6,373.7,386.8,372.3"/><path vector-effect="non-scaling-stroke" class="st0" d="M665.3,436.7c-10,3.7-8.6,13.7-15,19.4c-0.5,0.5-0.4,0.7,0.3,0.6
			c8.3-0.4,13.6-4.8,15.9-13.4c0.6-2.3,0.8-4.3,0.5-5.8c-0.1-0.6-0.7-1-1.4-0.9C665.4,436.6,665.3,436.6,665.3,436.7"/><path vector-effect="non-scaling-stroke" class="st0" d="M445.6,335.6c1,3.4,2.4,5.6,4.2,6.8c2.2,1.4,4,1,5.6-1.3
			c2.9-4.3,3.6-9.2,2.2-14.8c-1.4-5.8-1.6-11.4-0.5-16.9c0.1-0.6-0.3-1.1-0.8-1.2c-0.4-0.1-0.7,0.1-1,0.3
			C448.9,315.9,442.7,325.7,445.6,335.6"/><path vector-effect="non-scaling-stroke" class="st0" d="M363.6,468.3l-2-13.4c-0.1-0.7,0.3-1.3,0.9-1.6
			c12.6-6.2,24.2-12.9,21.5-29.2c-0.5-2.8-1-5.7-1.6-8.6c-0.1-0.6-0.5-0.8-1.1-0.6c-5.4,1.5-12.3,2.4-16.8,4.4
			c-13,6-14.4,19.5-6.5,30.8c3.6,5.1,4,12.2,5.4,18.2C363.4,468.4,363.5,468.4,363.6,468.3C363.6,468.4,363.6,468.4,363.6,468.3"/><path vector-effect="non-scaling-stroke" class="st0" d="M348.9,545.2c-2.5-0.9-4.9-1.3-7-1c0,0,0,0,0,0c2.4,0.3,4.7,0.8,6.9,1.3
			c0.1,0,0.2,0,0.2-0.1C349,545.2,349,545.2,348.9,545.2"/></g><path class="st1" d="M837.1,126.1l11.9,10c58.4,49.8,102,110.9,130.8,183.4c56.2,141.3,48.5,303.2-26.3,434.9
		c-14.8,26.1-34.5,53.2-59,81.4c-69.8,80-156.3,132.9-259.6,158.7c-145.3,36.2-302.6,8-424.1-79.4c-0.1-0.1-0.1-0.3,0-0.4
		c0.1-0.1,0.2-0.1,0.3-0.1c47.9,21.4,98.3,31.6,151.2,30.5c0.1,0,0.3-0.2,0.2-0.3c0-0.1-0.1-0.2-0.2-0.2
		c-114.9-21.8-218.9-90.1-280-187.9c-41-65.6-64.3-137.2-69.8-214.8c0-0.3-0.2-0.3-0.5-0.2c-0.3,0.1-0.4,0.3-0.4,0.6
		c0.1,4.6,0.7,11.7,1.6,21.2c6.3,66.4,24.1,128.9,53.3,187.6c0.1,0.1,0.1,0.1,0.1,0c0-0.2-0.1-0.2-0.3,0c-0.1,0.1-0.2,0-0.3-0.1
		C21.4,666.3,2.3,576.1,8.6,480.2c14.9-226,179.8-415.4,409.8-457.1C567.1-3.9,719,31.2,837.1,126.1z M162.5,160.5
		C14.6,303.8-20.1,518.4,67.9,701.2c26.4,55,67.8,109.9,120,147.1c34.4,24.5,72.7,39.8,115,45.8c89.1,12.7,270.5-3,263.7-132.2
		c-1.4-25.6-10.6-50.3-25-71.8c-23.2-34.7-51.8-64.3-85.8-89c-20.2-14.6-50-33.7-77-26.3c-13.4,3.7-23.9,11.9-31.2,24.8
		c-13.7,23.8,12.7,35.9,32.2,35c0.6,0,0.7-0.3,0.5-0.8c-3.6-9.9-2.3-18.1,4-24.6c15.5-16.2,35-2.9,45,10.8c0.3,0.4,0.2,0.8-0.2,1.1
		c-3.5,2.1-8.3,5.9-14.2,11.4c-14.8,13.7-36.6,11.3-54.3,4.1c-5.9-2.4-10.8-6-14.9-10.8c-0.7-0.9-1-0.7-0.9,0.4
		c0.7,5.9,2.3,16.3,4.7,31.1c2.1,12.7,8.7,22.6,19.6,29.6c0.3,0.2,0.7,0.1,0.9-0.2c0-0.1,0.1-0.1,0.1-0.2
		c2.4-8.8,7.8-14.4,16.3-16.8c10.3-3,17.2,4.3,24.5,9.3c1.1,0.1,2,0.3,2.6,0.7c0.5,0.3,0.6,0.7,0.4,1.2
		c-16.4,35.5-54.2,12.9-64.8-12c-0.2-0.4-0.4-0.4-0.5,0c-1.1,4,2.8,12.2,4,16.4c0.3,0.9,1.3,3.5,3.1,7.5c3.8,8.7-0.7,18.6-7.3,24.7
		c-0.4,0.4-0.9,0.4-1.4,0.1c-5.9-3.7-9.8-7-11.9-10c-8.3-12.3,0.6-24.9,2.8-37.4c2.8-16.3,1.1-32.1-1.2-48.4
		c-0.1-0.5-0.2-0.5-0.5-0.1c-5.5,9.5-2.6,22.8-6.7,32.4c-3.6,8.4-10.6,13.4-20.9,15c-0.6,0.1-1-0.2-1.2-0.7
		c-1.3-5-1.8-10.1-1.5-15.2c0.5-11.8,18.5-18.4,23.3-24.4c2.6-3.2,4.1-5.6,4.7-7.2c2.8-7.7,2.1-7.9-1.9-0.8
		c-0.1,0.1-1.1,1.2-3.1,3.2c-1,1-2.2,1.9-3.5,2.7c-6.3,3.8-12.1,8.3-17.1,13.7c-5.7,5.9-11.5,6.9-19.2,5.2c-0.5-0.1-0.7-0.4-0.5-0.9
		c2-6.8,4.3-11.3,6.8-13.5c4.8-4.1,16.3-3.2,22.2-2.4c0.6,0.1,1.1,0,1.6-0.2c13.5-6.2,14.5-17.5,18.4-29.4
		c3.9-12.2,10.6-20.6,21-27.7c0.3-0.2,0.4-0.6,0.2-0.9c-0.2-0.2-0.4-0.3-0.7-0.3c-8.9,1.5-43.5,7.1-47.4,15.4
		c-0.4,0.8-0.4,1.9-0.1,3.3c1.6,7.2,0.2,13.9-4.2,19.9c-6.7,9.1-18.9,6-28.6,7.1c-0.6,0.1-0.9-0.2-1-0.7c-1.2-9.8-0.9-20.3,7.9-26.7
		c4.4-2.7,7.4-4.2,9.1-4.5c9.3-1.8,18.6-4.7,27.9-8.7c0.4-0.2,0.6-0.6,0.4-1c-0.1-0.3-0.4-0.4-0.7-0.5c-16.9-0.8-34-8.6-36.4-27.3
		c-0.8-5.7-1.1-10.5-1-14.3c0-0.7,0.4-0.9,1-0.7c7.5,2.5,17.8,4.1,23.3,8.6c6.6,5.3,8.2,12.6,5,21.9c-0.2,0.6,0,1.1,0.7,1.3
		c3.8,1.3,7.8,1.7,11.9,1.2c19.5-2.2,37.9-5.8,58.8-3.8c22,2.2,40.8,8.1,58.7,20.1c1.4,0.9,1.7,0.7,0.9-0.8
		c-22.3-40.4-50.2-76.6-98.3-89c-2.8-0.7-5.6-0.1-8.5,1.9c-5.1,3.5-16.7,12.6-7.3,17.9c8.9,5.1,14,12.4,15.2,21.9
		c0.4,3.2,0.1,5.7-1,7.6c-0.3,0.6-0.8,0.9-1.5,1c-18.2,2.8-31.5-6.9-26.8-25.9c2.1-8.7,6.9-15.8,14.4-21.5c2.2-1.7,5.6-2.6,8.1-4.4
		c0.6-0.4,0.5-0.7-0.2-0.9c-11-3-20.1-3.8-27.1-2.7c-14.9,2.5-4.8,25.4-26.9,25.2c-7.6-0.1-12.8-0.7-18.2,2.2l-0.9,0.3
		c-0.7,0.2-1,0-1-0.7c-1.2-23.9,21.1-35.4,42.9-36.3c18.6-0.8,36.1,2.9,52.4,11.1c6.1,3,12.5,5.5,18.3,8.9c0.2,0.1,0.4,0,0.5-0.2
		c0.1-0.1,0-0.3-0.1-0.4c-14.8-13-31.9-21.6-51.4-26.1c-9-2.1-16.3-6.7-21.8-13.9c-7.2-9.4-7.5-20.4-3.9-31.2
		c0.2-0.5,0.6-0.7,1.1-0.7c12.7,1.7,23.2,3,29.9,13.4c2.4,6.4,4.1,13,5.1,19.9c0.7,4.9,1.9,8.7,5.9,11
		c30.9,18.4,58.5,39.9,82.9,64.5c0.8,0.8,1.1,0.7,0.7-0.4c-3.1-10.8-7.2-20.8-8.6-32c-2.2-16.9-4.3-33.7-6.4-50.6
		c-2.8-22.4-12.1-43.5-27.9-63.3c-3.2-4-6.8-6.9-10.7-8.6c-0.6-0.3-1.3-0.2-1.8,0.2c-6.3,4.7-12.7,5.8-19.2,3.3
		c-3.6-3.2-6.2-6.8-8.1-10.9c-0.3-0.6-0.1-1.1,0.5-1.5c6.2-3.6,12.9-4.7,20-3.2c0.6,0.1,1.1,0.4,1.6,0.8
		c9.6,9.4,19.4,17.1,26.5,29.5c0.3,0.5,0.5,0.5,0.6-0.1c0.1-0.3,0-0.6-0.1-1c-4-9.4-8.7-18.4-14.2-27c-7.3-11.5-16.5-12.8-28-16.7
		c-4.8-1.7-7.1-5.5-6.8-11.4c0-0.5,0.3-0.9,0.8-1.2c8.7-4.4,16.2-3.7,22.5,2.2c3.8,3.5,5.6,9.7,7.7,14.6c1.3,3,3.3,6.7,6,10.9
		c4.3,6.6,7.7,13.7,10.2,21.4c0.1,0.1,0.2,0.2,0.4,0.2c0.1,0,0.2-0.2,0.2-0.3c-2.2-26.4-0.2-52.2,15-75c0.3-0.5,0.5-1.1,0.4-1.7
		c-1-6.4-4.1-11.6-9.2-15.6c-0.4-0.3-0.4-0.6,0.1-0.7c0.2-0.1,0.5,0,0.7,0.2c4.4,4.9,7.6,7,9.6,13.8c0.2,0.6,0.5,0.7,0.8,0.1
		c3.6-6-1.8-16-5.8-20.8c-1.2-1.4-3.2-1.6-4.7-0.6c-19.3,12.9-34.9-2.6-40.2-20.8c-0.2-0.7,0.1-1,0.7-0.9c2.5,0.1,3.5-0.3,5.8-1.4
		c28.6-13.5,41.2,14.2,49,34.7c0.9,2.4,0.6,3.6,0.1,5.9c-0.2,0.7,0,0.9,0.7,0.4c15.6-11.7,32.6-15.6,50.9-11.6
		c15.4,3.3,27.6,11.8,39.9,22.2c0.1,0.1,0.3,0.1,0.3,0c0-0.1,0.1-0.1,0-0.2c-4.1-8.2-8.3-16.4-12.6-24.6
		c-6.5-12.3-19.4-30.1-32.5-35.1c-16.6-6.3-35.3-13.6-32.5-33.9c0.6-4.6,2.4-9.2,5.4-13.9c0.3-0.5,0.7-0.5,1.1-0.1
		c2.8,3.5,6.2,6.1,10.3,7.9c4.6,2,7.4,3.4,8.4,4.2c9.8,7.9,7.7,16.9,10.6,27.5c0.6,2.3,2,4.6,4.2,6.8c8.3,8.4,15.4,17.7,21.4,27.8
		c0,0.1,0.1,0.1,0.2,0.1h0.5c0.1,0,0.2-0.1,0.1-0.2c-3.3-8.3-10.1-33.9-2.4-40.7c3-2.7,6.8-3.1,11.4-1.1c0.5,0.2,0.9,0.6,1,1.1
		c2.2,8.3-3.4,14.6-7.2,21c-6.3,10.6,2,27.1,8,36.7c4.8,7.7,8.6,15.6,11.5,23.8c0.1,0.2,0.3,0.4,0.6,0.3c0.2-0.1,0.3-0.2,0.3-0.4
		c0.6-23.4,6.3-43.8,11.6-66.4c0.1-0.5,0.4-0.8,0.8-1c0.1-0.1,0.3-0.1,0.4-0.2c0.4-0.2,0.7-0.5,0.8-0.9c3.6-10.8,5.5-18.4,5.6-22.7
		c0.3-8.3-4.9-19.2-4.6-27.4c0.4-10.8,5.8-18.7,16.4-23.9c0.3-0.2,0.5-0.1,0.6,0.3c2.4,10.1,8.5,18.6,4.4,29.2
		c-1.3,3.2-4.3,9.9-9.2,20.2c-5.2,10.8-8.8,21.2-10.9,31.3c-1,5-0.5,5.2,1.7,0.6c4.6-9.8,10.2-18.3,18.6-27.7
		c4.9-5.5,9.2-11.3,13-17.6c12.1-20,27.4-15.1,45.6-7.1c0.6,0.2,0.7,0.6,0.5,1.2c-5.6,16.5-19.1,32.6-39.4,22.5
		c-2.1-1.1-4.2-2.2-6.2-3.4c-0.5-0.3-1.1-0.4-1.7-0.2c-1.4,0.4-2.7,1-3.8,2c-27.4,24.6-37.5,64.7-35.4,99.8
		c0.8,13.5,1.7,27,2.7,40.5c2.3,29.7-6,56.7-17.9,82.8c0,0.1,0,0.2,0.1,0.2c0.1,0,0.2,0,0.2-0.1l0,0c16.9-22.8,37.6-41.2,62.1-55.3
		c14.3-8.2,31.8-10.1,44.2-20.9c9-7.8,15.3-17.5,19-29.2c0.2-0.6,0.6-1,1.1-1.3c3.3-1.7,6.5-1.6,9.8,0.2c0.5,0.2,0.7,0.6,0.9,1.1
		c2.1,7-1.5,10.3-7.7,13.5c-11.3,5.9-17.2,13.5-25.5,21.4c-0.4,0.4-0.3,0.5,0.2,0.4c18.7-3.3,31.3-4.7,44-11.4
		c5.8-3.1,14.7-15.2,21.8-11.8c1.7,0.8,2.4,2.8,1.6,4.5c-0.2,0.3-0.4,0.6-0.6,0.9c-2.8,2.8-6.1,4.5-9.9,5.1
		c-7.2,1.1-13.9,3.4-20.2,7c-0.6,0.3-0.5,0.5,0.1,0.4c2-0.1,4.6-0.7,6.4-0.5c16.8,1.2,32.5,5.9,47.1,14.4
		c17.8,10.3,7.8,31.2-1.6,44.2c-0.1,0.2-0.2,0.2-0.2-0.1c0.5-10.9-2.9-21.4-10.1-31.7c-4.6-6.5-10.1-10.8-16.7-12.9
		c-9.4-3.1-24.7-3.4-36.3-2.4c-48.1,4.2-92.2,25.6-118.8,65.4c-0.1,0.1-0.1,0.2-0.1,0.3c0.1,0.2,0.1,0.3,0.2,0.4
		c0,0.1,0.2,0.2,0.3,0.2c0.1,0,0.1,0,0.1-0.1c9.5-10.9,21.3-17.8,35.6-20.6c26.9-5.3,51.3,4.5,74.3,17.3c6.5,3.6,12.2,2.5,17.1-3.2
		c1.4-1.6,1.1-3.9-0.5-5.2c-0.1-0.1-0.2-0.2-0.4-0.3c-3.9-2.5-7.4-5.9-8.5-10.4c-1.3-5.1,0.1-13.9,6.4-15.7c1.9-0.6,3.5-0.5,4.7,0.3
		c13.5,8.9,8.3,28-1.4,37c-0.5,0.5-1.1,0.7-1.7,0.8l-8.2,1.1c-1.3,0.2-1.3,0.5-0.1,0.9c21.8,7.6,43.3,7.5,64.2-0.4
		c15.3-5.7,9.4-20.1,20.2-28.5c4-3.2,10-5.3,18-6.3c0.5-0.1,0.9,0.2,0.9,0.7c3.1,22.8-26.5,35.7-44.5,40.8c-1.3,0.4-1.3,0.6,0.1,0.6
		c8.1,0,16.5,0.5,25.2,1.4c19.4,2.1,35.4,15.4,26.5,36.1c-0.5,1.2-1,1.2-1.5,0l-0.7-1.6c-0.2-0.5-0.7-0.7-1.2-0.7
		c-14.9,0.7-26-2.6-29.7-17.9c-0.7-2.8-1.9-6-3.7-9.5c-0.3-0.5-0.7-0.9-1.2-1.1c-6.3-3.1-11.8-4.3-16.2-3.6
		c-24.1,3.8-44.6,4.5-65.5-5.5c-0.1-0.1-0.3-0.1-0.4,0.1s-0.1,0.3,0.1,0.4c7.6,8.3,14.9,16.3,21.8,24c8,8.9,16.7-0.7,26.2-0.7
		c7.1,0.1,14,2.1,20.5,6.1c0.8,0.5,1.1,1.5,0.6,2.4c-14,24.3-40.1,9.2-53.1-5.3c-0.2-0.3-0.7-0.4-1-0.2c-0.3,0.2-0.4,0.7-0.2,1
		c11.3,19.9,35.4,29.2,56,30.8c5.7,0.4,14.3-5.7,20.4-6.2c10.6-1,21.8,5.4,26.3,15c0.3,0.6,0.1,1-0.5,1.2c-4.4,1.5-8.8,3.3-13,5.3
		c-9,4.4-16.1,1.7-24.5-2.8c-9.6-5.2-19.2-8.1-29.1-11.8c-0.2-0.1-0.4,0-0.4,0.2c-0.1,0.1,0,0.3,0.1,0.4
		c19.9,14.5,63.4,51.5,30.2,77c-0.4,0.3-0.8,0.3-1.1-0.1c-8.7-11.1-10.6-19.3-7.4-32.6c4.2-17.2-3.1-27.8-17.8-37.2
		c-0.7-0.4-0.8-0.3-0.5,0.4c6.9,14.6,17,31.9,5.6,44.2c-4.1,4.4-12.3,6.8-17.9,11.1c-0.5,0.4-0.9,0.3-1.3-0.1
		c-9.1-10.5-11.6-26.6,3.3-33.7c2.3-1.1,5.9-2.3,11-3.6c0.6-0.2,0.9-0.6,1-1.2c0.6-7.1-1-13.2-4.9-18.3c-1.9-2.5-5.8-5.6-11.8-9.4
		c-8.5-5.4-13.1-8.4-19.1-15.2c-0.4-0.5-0.7-0.4-0.7,0.2c-0.4,5.9-0.3,9.6,0.4,11.2c3.1,7.1,8.5,17.4,6.4,26.2
		c-1.6,6.9-10.3,14-15.3,19.8c-0.8,0.9-1.5,0.9-2.2-0.1c-4.7-7-12-17.8-10.4-25.9c1.3-6.8,7.2-12.2,12.3-16.8
		c11.8-10.6,2.4-24.7-4.3-36.1c-14.6-24.5-36.2-38.2-66.2-39.3c-1.1,0-1.1,0.1-0.1,0.4c12.9,3.9,23.3,10.9,31.2,21
		c12.4,15.9,15.1,33.6-2.6,47c-0.3,0.2-0.3,0.6-0.1,0.8c0.1,0.2,0.4,0.3,0.6,0.2c10.9-3.2,18.9-0.4,23.8,8.4c2.3,4,1.5,9,1.4,13.5
		c0,0.7-0.3,0.8-0.8,0.3c-1.4-1.5-2.9-3.2-4.8-4.1c-19.7-9-45.2-4.3-58.3,13c-2.8,3.8-2.1,4.5,2.1,2.4c11.1-5.8,26.1-12.7,36.3-1.7
		c1.2,1.3,1.1,3.3-0.2,4.5c0,0-0.1,0.1-0.1,0.1c-12,9.8-16-11.6-29-3c-0.7,0.5-0.6,0.8,0.1,1.2c11.8,5.1-1.7,26.3-6,32.9
		c-0.1,0.1-0.1,0.1-0.1,0.1c0-0.2,0-0.3-0.1-0.5c0-0.1,0-0.2,0.1-0.3c5.5-9.6,8.7-16.8,9.6-21.7c0.8-4.5-1.2-7.9-6-10.2
		c-0.5-0.2-1-0.3-1.5-0.2c-3.4,0.5-5.6,0.7-8.3,3.1c-25.1,22.9-23.1,52.9-6.4,80.1c8.2,13.3,21.6,26.4,32.7,39
		c23.8,27,41,49.3,48.4,85.3c1.8,8.7,2.9,39.5,11.4,46.2c1.2,0.9,2.8,0.7,3.7-0.4c0.1-0.1,0.1-0.1,0.2-0.2
		c14.9-22.5,4.9-49.1,3.5-74.9c-3-55.6,58.1-65.7,96-41.8c0.2,0.1,0.3,0.2,0.2,0.2l-0.5,0c-0.3,0-0.6-0.1-0.8-0.2
		c-18.5-10-37.3-11.5-56.6-4.5c-40.7,17.1-26.5,56.5-22.1,88.2c9.2,65.5-40.7,123.7-98.1,149.4c-7.1,3.2-12.6,3.2-20.3,3.1
		c-30.1-0.1-60.1-0.9-89.9-2.4c-0.3,0-0.5,0.2-0.5,0.5c0,0.2,0.1,0.4,0.3,0.5c36.2,11,72.1,15.9,109.6,17.6
		c101.5,4.6,194-21.6,277.3-78.6c49.1-34.6,88.5-77.3,117.4-128.5c23.4-41.4,39.3-85.2,48.2-131.2c21.4-110.2,3.1-227.9-52-326.5
		C908.2,188,841.6,123.1,755.7,77c-81.4-43.6-175.3-62.8-267.9-58.8C365.4,23.6,249.5,77.3,162.5,160.5z M441.7,374.5
		c-10.4-6.2-24.5-10.7-20.9-26.2c1.5-6.3,3.5-11.9,11.3-11c0.8,0.1,1.5-0.4,1.6-1.2c0,0,0,0,0,0c1.7-13.8,9.9-37.4,28.6-33.5
		c0.1,0,0.2,0,0.3-0.1c0.3-0.9,0.3-1,0-0.2c0,0.1-0.1,0.1-0.2,0.1c-24-5.2-50,8.4-58.6,30.5c-14.5,37.4-0.7,72.1,11.2,108.2
		c1.5,4.5,2.4,8.9,2.8,13.2c0.1,1.4,0.4,1.4,0.7,0.1c3.9-14,9.6-27.6,17.1-40.8c1.9-3.3,4.8-7.1,8.7-11.4
		c8.2-8.9,14.9-18.7,20.3-29.5c5.1-10.1,15.5-10.6,25.6-7.9c0.6,0.2,0.8,0.5,0.8,1.1c0,7-3.7,17.2-12,18.3
		c-18.5,2.4-32.6,16-41,31.9c-3.3,6.2-2.7,6.6,1.9,1.2c1.3-1.5,2.8-3.4,4.5-4.7c10.3-7.9,18.1-13.6,23.5-17.2
		c10-6.7,21.9-4.3,31.1,3c0.5,0.4,0.6,1,0.3,1.5c-2.7,4.6-6,8.7-10,12.4c-7.8,7.1-20.3-0.2-26.1-6.6c-0.4-0.4-1-0.5-1.5-0.3
		c-11.5,5.4-20.4,13.5-26.7,24.4c-10.9,18.9-14.9,37.4-12,55.4c1,6.4,2.1,6.4,3.1,0c2-13.2,1.9-30.2,21.1-28.5
		c0.5,0,0.8,0.3,0.9,0.8c1.4,5.8,0.8,11.2-2,15.9c-4.1,7-14.1,6.2-18.2,14.1c-12.2,23.3,23.4,85.7,36.7,105.4
		c3,4.4,7.9,9.1,12.1,12.5c28.4,23.4,53.8,50.1,80.5,75.5c0.2,0.2,0.6,0.3,0.8,0.1c0.2-0.2,0.3-0.6,0.1-0.8l0,0
		c-20.2-27.8-43.3-55.5-60.7-84.5c-17.6-29.3-23.4-60.3-17.2-93c6.5-34.7,28.4-64.4,35.2-98.1c3.3-16.1,2.4-33.1-2.6-51
		c-5.2-18.3-21.7-41.6-40.8-46.7c-12.4-3.3-22,0.2-28.9,10.8c-6.2,9.5-5.8,18,1.1,25.6c8.8,9.7,5.5,21.2-1.2,31.1
		C442.5,374.7,442.2,374.8,441.7,374.5z M547.9,521.1c4.6,7.5-2.9,15.7-5.4,22.3c-0.1,0.3,0,0.7,0.4,0.8c0.2,0.1,0.5,0,0.7-0.1
		c4.2-4,8.1-8.8,12.3-12c10.2-7.7,20.5-11.2,31.3-16.5c0.6-0.3,0.8-0.9,0.5-1.5c-0.1-0.2-0.2-0.3-0.4-0.4
		c-5.8-3.8-12.9-9.3-14.1-16.5c-1.8-11.2,2.8-19,13.9-23.2c1.4-0.5,2.1-2,1.5-3.4c0,0,0-0.1-0.1-0.1c-6.8-14.4-18.5-24.5-35.4-23.8
		c-35.4,1.5-57.2,34.2-60.6,65.7c-4.1,37.8,11,71.1,34.5,100.1c1.7,2.1,2,1.9,1.1-0.6c-6.9-17.5-5.4-34.7,4.6-51.7
		c1.6-2.8,3.2-5.7,4.8-8.7c0.3-0.5,0.3-1.1,0.2-1.6c-1.6-7.3-4.6-16.8-0.5-24.6c1.9-3.5,5-5.2,9.4-5
		C547.1,520.3,547.5,520.6,547.9,521.1z"/><path class="st1" d="M507.8,222.6c-11.9-3.7-17.6-11.7-16.8-24c0-0.6,0.3-1.1,0.9-1.4c17-8.4,32.4,2.4,29,20.7
		c-0.9,4.8-2,7.1-0.3,11.8c3.3,9.3,6.6,17,4.1,25c-0.1,0.2-0.3,0.3-0.5,0.3c-0.2-0.1-0.3-0.2-0.3-0.4
		C524.1,242.8,521.5,226.9,507.8,222.6z"/><path class="st1" d="M577.7,264.3c-9.5-0.6-16.1,1.9-24.7,5.7c-2.9,1.3-2.9,1.1-0.3-0.5c6.7-4,14.3-6.2,22.9-6.7
		c2.4-0.1,6.8,0.5,10.2,0.1c0.6-0.1,1.2-0.4,1.5-0.8c7.9-10.3,14.1-16.9,28.3-14.9c9.1,1.3,15.3,6.1,18.4,14.4c0.2,0.6,0,1-0.5,1.2
		c-10.7,4.2-17.9,11.1-30.6,8.6C595.6,269.9,586.1,264.8,577.7,264.3z"/><path class="st1" d="M413.4,281.5c2.2,5.6,2.8,11.4,2,17.5c0,0.2-0.2,0.4-0.4,0.4c-0.2,0-0.4-0.2-0.4-0.4
		c-1.3-10.1-3.8-19.9-7.6-29.3c-0.5-1.2,0.1-2.6,1.4-3.1c6.1-2.3,16.8-4.3,22,1.2c4,4.2,6.9,8.7,8.8,13.4c0.6,1.5,2,2.6,3.7,2.8
		c8.7,1.1,17,3.6,24.8,7.5c0.1,0.1,0.2,0.2,0.1,0.3c0,0.1-0.1,0.1-0.1,0.1c-0.1,0.1-0.3,0.1-0.5,0c-8.6-3.4-17.1-5.7-25.6-6.9
		c-9.7-1.4-20.1,4.1-27.6-3.7C413.1,280.2,412.9,280.3,413.4,281.5z"/><path class="st1" d="M585.3,347.5c6.2-17.3,18.4-22.5,29-34.7c4-4.6,6.7-7.3,8.2-8.2c8.1-4.6,20.2,1.3,28.3,4.1
		c0.6,0.2,0.8,0.6,0.7,1.2c-1.3,6.3-4.6,11.3-9.8,15.1c-12.2,8.8-23.1-10.3-32.9-3.1c-17.9,13.2-22.6,28.8-28.3,49.5
		c-0.1,0.4,0,0.5,0.4,0.2c5.4-4,8.6-6.8,9.6-8.4c5.2-8,9.2-16,17.9-16.3c12-0.5,6.9,12.4-2.3,13.9c-10.9,1.7-19.7,6.9-26.4,15.5
		c-9.3,11.9-19.8,22.8-31.4,32.7c-0.1,0.1-0.3,0.2-0.5,0.1c-0.2-0.1-0.2-0.2-0.1-0.4c18.2-16.7,40.8-48.6,18.8-71.7
		c-0.5-0.6-1.4-0.7-2.1-0.4c-21.7,10.5-32.6,0.8-39.2-19.3c-0.2-0.6,0.1-1.2,0.7-1.4c12.9-4.8,29.2-7.3,37.2,7.4
		c5.4,9.8,12.9,18.6,16.2,29.3c0.4,1.3,0.7,1.3,0.8-0.1c1.2-10.7,3.5-23.7,0.8-34.1c-2.3-8.7-12.8-10.9-15.6-19.7
		c-1.9-6-2.1-12.2-0.5-18.6c0.2-0.8,0.9-1.3,1.8-1.3c8.8,0.3,20.5,3.5,24.9,11.4c5.2,9.6-1.6,18.8-2.7,28.5c-1,9.4-2.4,18.9-4,28.4
		c0,0.1,0.1,0.3,0.2,0.3C585.1,347.7,585.3,347.7,585.3,347.5z"/><path class="st2" d="M431.2,288.4c-2.2,0.4-4.3,0.4-6.2,0c-0.8-0.2-0.8-0.3,0-0.3h6.1C432.4,288.1,432.4,288.2,431.2,288.4z"/><path class="st1" d="M445.6,335.6c-2.9-9.9,3.3-19.7,9.7-27.1c0.4-0.4,1-0.5,1.5-0.1c0.3,0.2,0.4,0.6,0.3,1
		c-1.1,5.5-0.9,11.1,0.5,16.9c1.4,5.6,0.7,10.6-2.2,14.8c-1.6,2.3-3.4,2.7-5.6,1.3C448,341.3,446.6,339,445.6,335.6z"/><path class="st1" d="M386.8,372.3c-0.2,1.4-0.3,1.4-0.5,0c-0.9-9-4.2-22.9-1.6-31.6c0.3-1.2,1.6-1.8,2.8-1.5
		c0.5,0.1,0.9,0.4,1.2,0.8c1.3,1.8,1.8,4,1.5,6.6C389.1,355,388,363.5,386.8,372.3z"/><path class="st3" d="M363.6,468.3l-2-13.4c-0.1-0.7,0.3-1.3,0.9-1.6c12.6-6.2,24.2-12.9,21.5-29.2c-0.5-2.8-1-5.7-1.6-8.6
		c-0.1-0.6-0.5-0.8-1.1-0.6c-5.4,1.5-12.3,2.4-16.8,4.4c-13,6-14.4,19.5-6.5,30.8c3.6,5.1,4,12.2,5.4,18.2
		C363.4,468.4,363.5,468.4,363.6,468.3C363.6,468.4,363.6,468.4,363.6,468.3z"/><path class="st1" d="M361.6,454.9l2,13.4c0,0-0.1,0.1-0.1,0.1c0,0,0,0-0.1,0c-1.4-6-1.8-13.1-5.4-18.2c-7.9-11.3-6.5-24.8,6.5-30.8
		c4.5-2.1,11.4-2.9,16.8-4.4c0.6-0.2,0.9,0.1,1.1,0.6c0.6,2.9,1.2,5.8,1.6,8.6c2.7,16.3-9,23-21.5,29.2
		C361.9,453.6,361.5,454.3,361.6,454.9z"/><path class="st1" d="M650.2,456.1c6.4-5.7,5-15.7,15-19.4c0.6-0.2,1.3,0.1,1.5,0.7c0,0.1,0,0.1,0.1,0.2c0.3,1.5,0.1,3.4-0.5,5.8
		c-2.3,8.6-7.6,13.1-15.9,13.4C649.8,456.8,649.7,456.6,650.2,456.1z"/><path class="st2" d="M348.9,545.2c0.1,0,0.1,0.1,0.1,0.2c0,0.1-0.1,0.1-0.2,0.1c-2.2-0.5-4.5-0.9-6.9-1.3c0,0,0,0,0,0
		C344.1,543.9,346.4,544.2,348.9,545.2z"/><path class="st1" d="M474.8,734.1c33.2,11.1,68.2,41.1,55.7,78.7c-9.8,29.3-44.9,46.2-72.5,55.3c-49.1,16.2-99.1,20.9-149.9,14.2
		c-67.5-8.9-123.2-39.9-162.9-94.4c-0.1-0.2-0.2-0.3-0.2-0.5c0-0.1,0-0.2,0.1-0.3c0.1-0.2,0.2-0.2,0.3,0
		c21.5,27.2,48.3,47.5,80.3,61.1c40,16.9,84.5,16.9,126.4,6.2c18.4-4.7,34.6-11.6,48.8-20.9c20.1-13.1,26.5-34.2,10.9-54.3
		c-8.8-9.9-20.4-15.6-34.8-17.1c-10.7-1.1-21.3-0.8-31.5,1.1c-0.1,0-0.2-0.1-0.2-0.1c0-0.1,0-0.1,0.1-0.2
		c25.9-7.7,50.5-5.6,73.9,6.2c14,8.9,23.7,22.4,23,38.9c-1,26.8-30.3,44.5-51.5,56.5c-0.8,0.5-0.8,0.7,0.2,0.6
		c30.2-1.4,57.8-10.5,82.8-27.1c27.5-18.3,40.2-44.1,22-74.1c-11.6-19.2-29.6-30.6-53.9-34.2c-11.9-2.2-23.6-2.2-35.3,0
		c-0.2,0-0.2,0-0.3-0.2c0,0,0-0.1,0-0.1c0-0.1,0-0.1,0.1-0.1C429.9,724.3,452.7,725.9,474.8,734.1z"/><path class="st1" d="M721.4,817.6c-31.5,19.9-54.6,51.6-49.2,89.4c0.1,0.6-0.2,1-0.8,1.2c-17.4,4.4-35.1,7.6-52.9,9.8
		c-0.9,0.1-1.2-0.2-0.9-1.1c17.5-45.9,55.3-86.8,101.4-107c9.7-4.8,19.6-7.4,29.6-7.9c4.3-0.2,4.3,0.3,0.3,1.5
		C739.7,806.2,730.5,810.9,721.4,817.6z"/><path class="st1" d="M796,838.6c-18.6,5.4-46.1,20.4-53.3,38.7c-0.9,2.4-0.2,3.1,2.3,2.3l22-7.3c0.2-0.1,0.5,0.1,0.5,0.3
		c0,0.2,0,0.3-0.1,0.4l-0.8,0.6c-16,9.6-33.2,17.6-51.7,23.9c-0.6,0.2-0.8,0-0.4-0.5c2.5-4,4.9-8.1,7.3-12.1
		c14.7-24.8,36.4-40,65.3-45.7L796,838.6z"/></g></svg>